<svg id="b1e31dc6-c640-4cbe-8163-ef02a7a9f7cc" data-name="Layer 1" xmlns="http://www.w3.org/2000/svg" viewBox="0 0 100 100"><circle cx="50" cy="50" r="50" style="fill:#603813"/><path d="M50,2.5A47.5,47.5,0,1,1,2.5,50,47.56,47.56,0,0,1,50,2.5M50,2A48,48,0,1,0,98,50,48,48,0,0,0,50,2Z" style="fill:#999"/><path d="M50,4.5A45.5,45.5,0,1,1,4.5,50,45.55,45.55,0,0,1,50,4.5M50,4A46,46,0,1,0,96,50,46,46,0,0,0,50,4Z" style="fill:#999"/><path d="M50,6.5A43.5,43.5,0,1,1,6.5,50,43.54,43.54,0,0,1,50,6.5M50,6A44,44,0,1,0,94,50,44,44,0,0,0,50,6Z" style="fill:#999"/><path d="M50,8.5A41.5,41.5,0,1,1,8.5,50,41.55,41.55,0,0,1,50,8.5M50,8A42,42,0,1,0,92,50,42,42,0,0,0,50,8Z" style="fill:#999"/><path d="M50,10.5A39.5,39.5,0,1,1,10.5,50,39.55,39.55,0,0,1,50,10.5m0-.5A40,40,0,1,0,90,50,40,40,0,0,0,50,10Z" style="fill:#999"/><path d="M50,12.5A37.5,37.5,0,1,1,12.5,50,37.54,37.54,0,0,1,50,12.5m0-.5A38,38,0,1,0,88,50,38,38,0,0,0,50,12Z" style="fill:#999"/><path d="M50,14.5A35.5,35.5,0,1,1,14.5,50,35.55,35.55,0,0,1,50,14.5m0-.5A36,36,0,1,0,86,50,36,36,0,0,0,50,14Z" style="fill:#999"/><path d="M50,16.5A33.5,33.5,0,1,1,16.5,50,33.54,33.54,0,0,1,50,16.5m0-.5A34,34,0,1,0,84,50,34,34,0,0,0,50,16Z" style="fill:#999"/><path d="M50,18.5A31.5,31.5,0,1,1,18.5,50,31.53,31.53,0,0,1,50,18.5m0-.5A32,32,0,1,0,82,50,32,32,0,0,0,50,18Z" style="fill:#999"/><path d="M50,20.5A29.5,29.5,0,1,1,20.5,50,29.53,29.53,0,0,1,50,20.5m0-.5A30,30,0,1,0,80,50,30,30,0,0,0,50,20Z" style="fill:#999"/><path d="M50,22.5A27.5,27.5,0,1,1,22.5,50,27.54,27.54,0,0,1,50,22.5m0-.5A28,28,0,1,0,78,50,28,28,0,0,0,50,22Z" style="fill:#999"/><path d="M50,24.5A25.5,25.5,0,1,1,24.5,50,25.53,25.53,0,0,1,50,24.5m0-.5A26,26,0,1,0,76,50,26,26,0,0,0,50,24Z" style="fill:#999"/><path d="M50,26.5A23.5,23.5,0,1,1,26.5,50,23.52,23.52,0,0,1,50,26.5m0-.5A24,24,0,1,0,74,50,24,24,0,0,0,50,26Z" style="fill:#999"/><path d="M50,28.5A21.5,21.5,0,1,1,28.5,50,21.52,21.52,0,0,1,50,28.5m0-.5A22,22,0,1,0,72,50,22,22,0,0,0,50,28Z" style="fill:#999"/><path d="M50,30.5A19.5,19.5,0,1,1,30.5,50,19.53,19.53,0,0,1,50,30.5m0-.5A20,20,0,1,0,70,50,20,20,0,0,0,50,30Z" style="fill:#999"/></svg>